<svg width="788" height="424" version="1.1" viewBox="0 0 208.5 112.2" xmlns="http://www.w3.org/2000/svg" xmlns:xlink="http://www.w3.org/1999/xlink"><defs><marker id="a" overflow="visible" orient="auto"><path transform="matrix(-.2 0 0 -.2 -1.2 0)" d="m0 0 5-5-17.5 5 17.5 5z" fill="#bd0000" fill-rule="evenodd" stroke="#bd0000" stroke-width="1pt"/></marker><marker id="b" overflow="visible" orient="auto"><path transform="matrix(.2 0 0 .2 1.2 0)" d="m0 0 5-5-17.5 5 17.5 5z" fill="#bd0000" fill-rule="evenodd" stroke="#bd0000" stroke-width="1pt"/></marker><marker id="e" overflow="visible" orient="auto"><path transform="matrix(-.2 0 0 -.2 -1.2 0)" d="m0 0 5-5-17.5 5 17.5 5z" fill="#bd0000" fill-rule="evenodd" stroke="#bd0000" stroke-width="1pt"/></marker><marker id="d" overflow="visible" orient="auto"><path transform="matrix(.2 0 0 .2 1.2 0)" d="m0 0 5-5-17.5 5 17.5 5z" fill="#bd0000" fill-rule="evenodd" stroke="#bd0000" stroke-width="1pt"/></marker></defs><g transform="translate(3.175 -188)"><g id="c"><rect x="7.5e-7" y="191.2" width="79.38" height="105.8" rx="13.23" ry="13.23" fill="#4f4c4d" stroke="#4f4c4d" stroke-linejoin="round" stroke-width="1.058"/><rect x="6.615" y="197.8" width="66.15" height="84.67" fill="#fff" stroke="#fff" stroke-linejoin="round" stroke-width="1.058"/><path d="m9.976 215.8h59.42" fill="none" marker-end="url(#e)" marker-start="url(#d)" stroke="#bd0000" stroke-width="1.941"/><path d="m57.15 201.9v76.51" fill="none" marker-end="url(#a)" marker-start="url(#b)" stroke="#bd0000" stroke-width="2.202"/></g><g fill="#c87137" font-family="Kontrapunkt" font-size="14.11px" letter-spacing="0px" stroke-width=".2646" word-spacing="0px"><text x="8.4288721" y="226.58293" style="line-height:1.25" xml:space="preserve"><tspan x="8.4288721" y="226.58293" fill="#000000" font-family="Kontrapunkt" font-size="9.878px" font-weight="bold" stroke-width=".2646">100vw</tspan></text><text transform="rotate(-90)" x="-276.04306" y="52.296768" style="line-height:1.25" xml:space="preserve"><tspan x="-276.04306" y="52.296768" fill="#000000" font-family="Kontrapunkt" font-size="9.878px" font-weight="bold" stroke-width=".2646">100vh</tspan></text><text x="8.4288721" y="211.76646" style="line-height:1.25" xml:space="preserve"><tspan x="8.4288721" y="211.76646" fill="#000000" font-family="Kontrapunkt" font-size="9.878px" font-weight="bold" stroke-width=".2646">100vmin</tspan></text><text transform="rotate(-90)" x="-276.04306" y="68.171783" style="line-height:1.25" xml:space="preserve"><tspan x="-276.04306" y="68.171783" fill="#000000" font-family="Kontrapunkt" font-size="9.878px" font-weight="bold" stroke-width=".2646">100vmax</tspan></text></g><use transform="rotate(-90 94.46 189.3)" width="100%" height="100%" xlink:href="#c"/><g fill="#c87137" font-family="Kontrapunkt" font-size="14.11px" letter-spacing="0px" stroke-width=".2646" word-spacing="0px"><text x="135.61705" y="237.20496" style="line-height:1.25" xml:space="preserve"><tspan x="135.61705" y="237.20496" fill="#000000" font-family="Kontrapunkt" font-size="9.878px" font-weight="bold" stroke-width=".2646">100vw</tspan></text><text x="135.61705" y="222.38849" style="line-height:1.25" xml:space="preserve"><tspan x="135.61705" y="222.38849" fill="#000000" font-family="Kontrapunkt" font-size="9.878px" font-weight="bold" stroke-width=".2646">100vmax</tspan></text><text transform="rotate(-90)" x="-276.54123" y="115.7372" style="line-height:1.25" xml:space="preserve"><tspan x="-276.54123" y="115.7372" fill="#000000" font-family="Kontrapunkt" font-size="9.878px" font-weight="bold" stroke-width=".2646">100vh</tspan></text><text transform="rotate(-90)" x="-276.54123" y="131.61217" style="line-height:1.25" xml:space="preserve"><tspan x="-276.54123" y="131.61217" fill="#000000" font-family="Kontrapunkt" font-size="9.878px" font-weight="bold" stroke-width=".2646">100vmin</tspan></text></g></g></svg>
