<svg width="1134" height="537.6" version="1.1" viewBox="0 0 300 142.2" xmlns="http://www.w3.org/2000/svg" xmlns:xlink="http://www.w3.org/1999/xlink"><defs><marker id="c" overflow="visible" orient="auto"><path transform="matrix(-.2 0 0 -.2 -1.2 0)" d="m0 0 5-5-17.5 5 17.5 5z" fill="#bd0000" fill-rule="evenodd" stroke="#bd0000" stroke-width="1pt"/></marker><marker id="d" overflow="visible" orient="auto"><path transform="matrix(.2 0 0 .2 1.2 0)" d="m0 0 5-5-17.5 5 17.5 5z" fill="#bd0000" fill-rule="evenodd" stroke="#bd0000" stroke-width="1pt"/></marker><marker id="e" overflow="visible" orient="auto"><path transform="matrix(-.2 0 0 -.2 -1.2 0)" d="m0 0 5-5-17.5 5 17.5 5z" fill="#bd0000" fill-rule="evenodd" stroke="#bd0000" stroke-width="1pt"/></marker><marker id="f" overflow="visible" orient="auto"><path transform="matrix(.2 0 0 .2 1.2 0)" d="m0 0 5-5-17.5 5 17.5 5z" fill="#bd0000" fill-rule="evenodd" stroke="#bd0000" stroke-width="1pt"/></marker><marker id="g" overflow="visible" orient="auto"><path transform="matrix(-.2 0 0 -.2 -1.2 0)" d="m0 0 5-5-17.5 5 17.5 5z" fill="#bd0000" fill-rule="evenodd" stroke="#bd0000" stroke-width="1pt"/></marker><marker id="b" overflow="visible" orient="auto"><path transform="matrix(.2 0 0 .2 1.2 0)" d="m0 0 5-5-17.5 5 17.5 5z" fill="#bd0000" fill-rule="evenodd" stroke="#bd0000" stroke-width="1pt"/></marker></defs><g transform="translate(8.245 -182.7)"><g fill="#f9f9f9"><rect x="197.1" y="185.4" width="91.99" height="136.9"/><rect x="94.94" y="185.4" width="91.99" height="136.9"/><rect x="-5.599" y="185.4" width="91.99" height="136.9"/></g><use transform="translate(100.5)" width="100%" height="100%" xlink:href="#a"/><rect x="106.6" y="196.8" width="67.2" height="30.86" fill="#fc0"/><path d="m122 198.6v26.56" fill="none" marker-end="url(#c)" marker-start="url(#d)" stroke="#bd0000" stroke-width="1.297"/><text transform="rotate(-90)" x="-224.18486" y="117.91351" fill="#c87137" font-family="Kontrapunkt" font-size="14.11px" letter-spacing="0px" stroke-width=".2646" word-spacing="0px" style="line-height:1.25" xml:space="preserve"><tspan x="-224.18486" y="117.91351" fill="#000000" font-family="Kontrapunkt" font-size="9.878px" font-weight="bold" stroke-width=".2646">30%</tspan></text><path d="m171.6 229.2v51.6" fill="none" stroke="#b3b3b3" stroke-width="1.852"/><g transform="translate(.8294)"><use transform="matrix(0 -.2373 .2373 0 184.3 293.5)" width="100%" height="100%" xlink:href="#a"/><text x="234.69469" y="291.28485" fill="#000000" font-family="Kontrapunkt" font-size="20.18px" letter-spacing="0px" stroke-width=".3784" word-spacing="0px" style="line-height:1.25" xml:space="preserve"><tspan x="234.69469" y="291.28485" font-family="serif" stroke-width=".3784">A</tspan></text></g><g><g transform="matrix(0 -.8051 .8051 0 46.54 258.7)" stroke-linejoin="round"><rect x="7.5e-7" y="191.2" width="79.38" height="105.8" rx="0" ry="0" fill="#4f4c4d" stroke="#4f4c4d" stroke-width="1.058"/><rect x="8.755" y="197.8" width="66.1" height="92.66" fill="#fff" stroke="#fff" stroke-width="1.107"/></g><text x="217.88495" y="249.25322" fill="#000000" font-family="serif" font-size="67.55px" letter-spacing="0px" stroke-width="1.267" word-spacing="0px" style="line-height:1.25" xml:space="preserve"><tspan x="217.88495" y="249.25322" font-family="serif" stroke-width="1.267">A</tspan></text></g><g id="a"><rect x="7.5e-7" y="191.2" width="79.38" height="105.8" rx="13.23" ry="13.23" fill="#4f4c4d" stroke="#4f4c4d" stroke-linejoin="round" stroke-width="1.058"/><rect x="6.615" y="197.8" width="66.15" height="84.67" fill="#fff" stroke="#fff" stroke-linejoin="round" stroke-width="1.058"/></g><path d="m7.28 209.2h8.392" fill="none" marker-end="url(#g)" marker-start="url(#b)" stroke="#bd0000" stroke-width=".7292"/><path d="m17.66 197.9v9.597" fill="none" marker-end="url(#e)" marker-start="url(#f)" stroke="#bd0000" stroke-width=".7798"/><rect x="17.19" y="208.5" width="44.99" height="64.79" fill="#fc0"/><text x="18.982197" y="219.36363" fill="#c87137" font-family="Kontrapunkt" font-size="14.11px" letter-spacing="0px" stroke-width=".2646" word-spacing="0px" style="line-height:1.25" xml:space="preserve"><tspan x="18.982197" y="219.36363" fill="#000000" font-family="Kontrapunkt" font-size="9.878px" font-weight="bold" stroke-width=".2646">(x,y)</tspan></text><g fill="#000000" font-size="14.11px" letter-spacing="0px" word-spacing="0px"><text font-family="Kontrapunkt" style="line-height:1.25;shape-inside:url(#rect1768);white-space:pre" xml:space="preserve"/><g font-family="sans-serif" stroke-width=".2646"><text x="32.942009" y="317.10922" style="line-height:1.25" xml:space="preserve"><tspan x="32.942009" y="317.10922" font-family="sans-serif" stroke-width=".2646">1.</tspan></text><text x="133.7421" y="317.10922" style="line-height:1.25" xml:space="preserve"><tspan x="133.7421" y="317.10922" font-family="sans-serif" stroke-width=".2646">2.</tspan></text><text x="236.54895" y="317.10922" style="line-height:1.25" xml:space="preserve"><tspan x="236.54895" y="317.10922" font-family="sans-serif" stroke-width=".2646">3.</tspan></text></g></g></g></svg>
